<!-- Generated by IcoMoon.io -->
<svg version="1.1" xmlns="http://www.w3.org/2000/svg" width="352" height="448" viewBox="0 0 352 448">
<title></title>
<g id="icomoon-ignore">
</g>
<path fill="#000" d="M154.25 422.25c0-6-13.25-48.5-16-58.5-1.5-6.25-2-16.5-6.75-21-3.25-3-8.5-3.5-12.75-3.5-11.75 0-23.5 2.75-35.25 2.75-3.5 0-8.75-0.25-11.75-2.75-4-3.25-6-14.5-7.5-19.5-6-20.75-9.25-42-9.25-63.75s3.25-43 9.25-63.75c1.5-5 3.5-16.25 7.5-19.5 3-2.5 8.25-2.75 11.75-2.75 11.75 0 23.5 2.75 35.25 2.75 4.25 0 9.5-0.5 12.75-3.5 4.75-4.5 5.25-14.75 6.75-21 2.75-10 16-52.5 16-58.5 0-8.5-22.5-21-29.75-23.75-3.75-1.5-7.5-2-11.25-2-8.25 0-16.5 2.25-24.5 4.5-41 12.25-50.75 37.25-67 72.5-17.5 37.75-21.75 73.75-21.75 115s4.25 77.25 21.75 115c16.25 35.25 26 60.25 67 72.5 8 2.25 16.25 4.5 24.5 4.5 3.75 0 7.5-0.5 11.25-2 7.25-2.75 29.75-15.25 29.75-23.75zM194 194c-4.25 0-8.25-1.75-11.25-4.75-6.25-6.25-6.5-16.5 0-22.75 6-6 9.25-14 9.25-22.5s-3.25-16.5-9.25-22.75c-6.5-6.25-6.25-16.25 0-22.5s16.25-6.25 22.5 0c12 12 18.75 28.25 18.75 45.25s-6.75 33.25-18.75 45.25c-3.25 3-7.25 4.75-11.25 4.75zM239.25 239.25c-4.25 0-8.25-1.5-11.25-4.75-6.25-6.25-6.25-16.25 0-22.5 18-18.25 28-42.25 28-68s-10-49.75-28-68c-6.25-6.25-6.25-16.25 0-22.5s16.25-6.25 22.5 0c24.25 24.25 37.5 56.25 37.5 90.5s-13.25 66.25-37.5 90.5c-3 3.25-7.25 4.75-11.25 4.75zM284.5 284.5c-4.25 0-8.25-1.5-11.25-4.75-6.25-6.25-6.25-16.25 0-22.5 30-30.25 46.75-70.5 46.75-113.25s-16.75-83-46.75-113.25c-6.25-6.25-6.25-16.25 0-22.5s16.25-6.25 22.5 0c36.25 36.25 56.25 84.5 56.25 135.75s-20 99.5-56.25 135.75c-3 3.25-7.25 4.75-11.25 4.75z"></path>
</svg>
